# xmcd
#
# Track frame offsets: 
#        150
#        10292
#        21736
#        35810
#        48822
#        60889
#        73078
#        85271
#        97916
#        111223
#        122470
#        134418
#        150427
#        162332
#        176122
#        192559
#        203608
#        215448
#        229140
#
# Disc length: 3221 seconds
#
# Revision: 0
# Processed by: cddbd v1.5.2PL0 Copyright (c) Steve Scherf et al.
# Submitted via: ExactAudioCopy v0.99pb5
#
DISCID=050c9313
DTITLE=Various Artist - DIE SCHÖNSTEN COUNTRY and WESTERN HITS - VOL. 1
DYEAR=2001
DGENRE=Country
TTITLE0=BOBBY BARE - Help Me Make It Through The Night
TTITLE1=BILLY GRAMMER - Mabel, You Have Been A Friend To Me
TTITLE2=BARBARA PERRY - Why Can´t Women Have A Good Beer Drinking Song
TTITLE3=RONNIE ROGERS - Diane (Do The Wrong Again With Me)
TTITLE4=DAVE DUDLEY - Rollin´ On - We Gone
TTITLE5=DAVID PRICE - I Need A Friend
TTITLE6=FERLIN HUSKY - Out Of The Clear Blue Sky
TTITLE7=GEORGE KENT - Hardscuffle Road
TTITLE8=LINDA MANNING - If Only For A Moment
TTITLE9=RICK JOHNSON - You´d Better Take It
TTITLE10=ROY BAHAM - Linda´s Red Dress
TTITLE11=RICK PILGREEN - If I Had The Chance
TTITLE12=FERLIN HUSKY - Money Greases The Wheels
TTITLE13=DAVE DUDLEY - I Was Country Before Barbara Mandrell
TTITLE14=BOBBY BARE - Me And Bobby McGee
TTITLE15=DAVE DUDLEY - Get Me Back To Tennessee
TTITLE16=GEORGE KENT - I Always Did Like Leavenworth
TTITLE17=BILLY GRAMMER - The Hour Of Separation
TTITLE18=TOM STEWART - All The Way `Cross Texas
EXTD=
EXTT0=
EXTT1=
EXTT2=
EXTT3=
EXTT4=
EXTT5=
EXTT6=
EXTT7=
EXTT8=
EXTT9=
EXTT10=
EXTT11=
EXTT12=
EXTT13=
EXTT14=
EXTT15=
EXTT16=
EXTT17=
EXTT18=
PLAYORDER=
